Coordinates
version=1
nRows=24
nColumns=22
inDegrees=yes

Units are S.I. units (second, meters, Newtons, ...)
If the header above contains a line with 'inDegrees', this indicates whether rotational values are in degrees (yes) or radians (no).

endheader
time	pelvis_tilt	pelvis_list	pelvis_rotation	pelvis_tx	pelvis_ty	pelvis_tz	hip_flexion_r	hip_adduction_r	hip_rotation_r	knee_angle_r	ankle_angle_r	subtalar_angle_r	hip_flexion_l	hip_adduction_l	hip_rotation_l	knee_angle_l	ankle_angle_l	subtalar_angle_l	lumbar_extension	lumbar_bending	lumbar_rotation
      0.01000000	     -1.56793908	     -4.26273273	      0.03470607	     -1.15717510	      0.95769572	      0.00596251	      9.75932552	      5.93931539	     -0.40816271	    -18.79827425	     10.27886650	     -3.33891690	     11.70992693	     -7.00669420	     -6.01892910	    -25.39970452	     13.00282735	     -2.57780851	     -5.28963310	      2.39755850	     -0.25304121
      0.02000000	     -1.58219165	     -4.25315035	     -0.00840933	     -1.15708881	      0.95769491	      0.00587214	      9.76288516	      5.92135701	     -0.39724311	    -18.78647568	     10.24748960	     -3.34840137	     11.70593345	     -6.99619070	     -6.07521300	    -25.39241093	     13.01851650	     -2.58356007	     -5.27900193	      2.39407814	     -0.22901250
      0.03000000	     -1.58865649	     -4.25607534	     -0.03589149	     -1.15701008	      0.95769624	      0.00573006	      9.76166703	      5.91336585	     -0.39594271	    -18.78238278	     10.24806179	     -3.34899981	     11.70362027	     -6.98771715	     -6.07552740	    -25.39790914	     13.01803037	     -2.58343001	     -5.28097134	      2.41040137	     -0.23159936
      0.04000000	     -1.61247796	     -4.26567075	     -0.11081469	     -1.15688936	      0.95768253	      0.00566736	      9.75938721	      5.92759160	     -0.30384656	    -18.74734302	     10.24066444	     -3.34905928	     11.70101982	     -7.00311047	     -6.15657871	    -25.39085583	     13.03401190	     -2.58997404	     -5.26041848	      2.42865434	     -0.16893041
      0.05000000	     -1.61917492	     -4.26839854	     -0.14048072	     -1.15679781	      0.95767870	      0.00550808	      9.75919132	      5.91895928	     -0.30246006	    -18.74517869	     10.24025570	     -3.34926219	     11.69820370	     -6.99330107	     -6.15721199	    -25.39844154	     13.03395617	     -2.58981280	     -5.26537173	      2.44494997	     -0.17363533
      0.06000000	     -1.63324694	     -4.26868307	     -0.22667149	     -1.15670309	      0.95766183	      0.00546096	      9.76682694	      5.92760265	     -0.18334289	    -18.74581392	     10.22918558	     -3.34897350	     11.69142186	     -7.00297208	     -6.25456777	    -25.40687069	     13.05973029	     -2.59548911	     -5.26522498	      2.45003050	     -0.11874680
      0.07000000	     -1.64155682	     -4.27158696	     -0.25121968	     -1.15661445	      0.95765323	      0.00528053	      9.76812226	      5.91880750	     -0.18292014	    -18.74108958	     10.23055914	     -3.34961484	     11.69002669	     -6.99141511	     -6.25597524	    -25.41045299	     13.05915227	     -2.59487515	     -5.27193445	      2.46795803	     -0.12020221
      0.08000000	     -1.65790614	     -4.26670841	     -0.32881307	     -1.15653326	      0.95762408	      0.00521378	      9.78650842	      5.92067208	     -0.07481396	    -18.75471411	     10.24776704	     -3.36171731	     11.68585172	     -6.99097988	     -6.33714096	    -25.41349868	     13.07804184	     -2.59446694	     -5.27265622	      2.46654815	     -0.06540718
      0.09000000	     -1.66556755	     -4.26926101	     -0.34776239	     -1.15644513	      0.95760993	      0.00503174	      9.78886208	      5.91175788	     -0.07300961	    -18.75256583	     10.24811046	     -3.36276437	     11.68558559	     -6.98065737	     -6.33948942	    -25.41778502	     13.07821515	     -2.59405531	     -5.28053099	      2.48085673	     -0.06777338
      0.10000000	     -1.68653679	     -4.25496491	     -0.40831634	     -1.15639280	      0.95755985	      0.00492900	      9.82724253	      5.89951818	      0.01275146	    -18.78973310	     10.26663108	     -3.38544394	     11.69840614	     -6.96755708	     -6.41106047	    -25.43201956	     13.10015433	     -2.59444122	     -5.27968494	      2.46797715	     -0.02651726
      0.11000000	     -1.69027613	     -4.25420516	     -0.42176224	     -1.15634473	      0.95753610	      0.00474688	      9.84203196	      5.89028291	      0.03486894	    -18.81461056	     10.26700232	     -3.38999528	     11.70556061	     -6.95580281	     -6.41653069	    -25.44990966	     13.10436566	     -2.59529447	     -5.30027796	      2.47451845	     -0.03727410
      0.12000000	     -1.69481714	     -4.25016652	     -0.43253168	     -1.15630043	      0.95750085	      0.00455166	      9.86299004	      5.87718612	      0.06129216	    -18.84957388	     10.27424352	     -3.39461400	     11.71669285	     -6.94048542	     -6.42417476	    -25.47213775	     13.11601503	     -2.59920428	     -5.31994609	      2.47731443	     -0.04407588
      0.13000000	     -1.70166334	     -4.24465349	     -0.43525043	     -1.15626860	      0.95745603	      0.00434898	      9.89198481	      5.86286430	      0.08789853	    -18.89321221	     10.28931530	     -3.39979404	     11.73327509	     -6.92344400	     -6.43032150	    -25.49440783	     13.13096993	     -2.60527492	     -5.34012363	      2.47526308	     -0.05186678
      0.14000000	     -1.70962703	     -4.23905752	     -0.42976318	     -1.15623474	      0.95740219	      0.00413293	      9.92443436	      5.84754557	      0.10978419	    -18.94167611	     10.31096209	     -3.40607392	     11.75397980	     -6.90468230	     -6.42919957	    -25.51819882	     13.14614489	     -2.61275827	     -5.35811204	      2.47265695	     -0.06429832
      0.15000000	     -1.74861553	     -4.22424305	     -0.41424381	     -1.15620259	      0.95728602	      0.00388389	      9.99864150	      5.81662019	      0.10406589	    -19.00426796	     10.37419594	     -3.42621189	     11.81243056	     -6.87025973	     -6.40704323	    -25.54599581	     13.17046807	     -2.63200938	     -5.33657727	      2.46184787	     -0.08161998
      0.16000000	     -1.74744437	     -4.22823555	     -0.38985293	     -1.15617310	      0.95724699	      0.00366322	     10.02054289	      5.81193463	      0.12330287	    -19.04968954	     10.37405336	     -3.43019900	     11.82718341	     -6.86151581	     -6.39525786	    -25.56818824	     13.17298792	     -2.63622467	     -5.36635508	      2.46621097	     -0.10831639
      0.17000000	     -1.77307129	     -4.22636010	     -0.34063721	     -1.15614893	      0.95714695	      0.00338844	     10.07773986	      5.79080201	      0.08569011	    -19.10635058	     10.42282917	     -3.45265206	     11.88228929	     -6.83418125	     -6.32991100	    -25.60148580	     13.19584077	     -2.65755470	     -5.36029126	      2.46825143	     -0.15500869
      0.18000000	     -1.77098471	     -4.23155709	     -0.31250487	     -1.15610744	      0.95711153	      0.00317950	     10.09795293	      5.78729752	      0.10069634	    -19.15221965	     10.42199404	     -3.45684073	     11.89298146	     -6.82654081	     -6.31571172	    -25.61819827	     13.19793191	     -2.66167144	     -5.38572717	      2.47247237	     -0.18045561
      0.19000000	     -1.76971795	     -4.23435780	     -0.27661247	     -1.15607157	      0.95707084	      0.00296692	     10.12157647	      5.77975565	      0.10284445	    -19.20250888	     10.43560139	     -3.46415478	     11.90778955	     -6.81299190	     -6.28281259	    -25.63742766	     13.20810285	     -2.66926954	     -5.40795492	      2.47423660	     -0.20736440
      0.20000000	     -1.78713923	     -4.23043858	     -0.21936678	     -1.15601171	      0.95700425	      0.00270189	     10.15869784	      5.75521153	      0.05250180	    -19.24295650	     10.47583173	     -3.48377632	     11.94299936	     -6.78031227	     -6.20760023	    -25.65250317	     13.22359118	     -2.68818724	     -5.39992118	      2.47342989	     -0.25258579
      0.21000000	     -1.78234705	     -4.23543349	     -0.18832133	     -1.15593680	      0.95698864	      0.00252344	     10.16760508	      5.75394078	      0.06943904	    -19.27970569	     10.47498648	     -3.48684024	     11.94435511	     -6.77378195	     -6.19414275	    -25.65970590	     13.22405496	     -2.69157556	     -5.41543943	      2.47385575	     -0.26912796
      0.22000000	     -1.77472819	     -4.23566017	     -0.15315369	     -1.15584372	      0.95697826	      0.00232486	     10.16878769	      5.74478366	      0.08168657	    -19.31111050	     10.48617695	     -3.49201798	     11.94067079	     -6.75707796	     -6.16088558	    -25.66698628	     13.23046490	     -2.69777059	     -5.42816688	      2.47264200	     -0.28656148
      0.23000000	     -1.76411990	     -4.23259189	     -0.11035915	     -1.15573543	      0.95698221	      0.00211276	     10.15676364	      5.72976569	      0.08363668	    -19.32641577	     10.50607504	     -3.49867766	     11.92861686	     -6.73275105	     -6.11603781	    -25.66282347	     13.23775934	     -2.70600333	     -5.43989329	      2.46774411	     -0.30741739
      0.24000000	     -1.76389030	     -4.23695984	     -0.08433460	     -1.15560721	      0.95697923	      0.00193297	     10.15058387	      5.72445613	      0.08845652	    -19.33336193	     10.50645384	     -3.49906943	     11.92507039	     -6.72748492	     -6.11780056	    -25.66139987	     13.23802654	     -2.70648793	     -5.43466733	      2.47123248	     -0.30180312
